<?xml version="1.0" encoding="UTF-8" standalone="no"?>
<!-- Created with Inkscape (http://www.inkscape.org/) -->
<svg xmlns:svg="http://www.w3.org/2000/svg" xmlns="http://www.w3.org/2000/svg" version="1.0" width="216.07182" height="131.21844" id="svg2447">
  <defs id="defs2449"/>
  <g transform="translate(-263.781, -462.569)" id="layer1">
    <path d="M 301.14294,468.85904 C 294.59055,468.85904 289.31553,474.13406 289.31553,480.68643 L 289.31553,558.59303 C 289.31553,565.14542 294.59055,570.42044 301.14294,570.42044 L 438.78912,570.42044 L 467.30624,558.85426 L 459.12971,468.91162 L 301.14294,468.85904 z" id="path2475" style="fill: rgb(255, 255, 255); fill-opacity: 1; stroke: rgb(0, 34, 85); stroke-width: 0pt; stroke-linecap: butt; stroke-linejoin: miter; stroke-miterlimit: 4; stroke-opacity: 1;"/>
    <path d="M 457.66715,468.85904 C 464.21953,468.85904 469.49455,474.13406 469.49455,480.68643 L 469.49455,558.59303 C 469.49455,565.14542 464.21953,570.42044 457.66715,570.42044 L 436.06928,570.42044 L 436.3811,561.73171 C 448.50049,562.34013 456.5277,560.82661 460.97943,555.92107 C 461.00553,553.8262 462.61709,550.29624 459.40489,544.3476 C 457.64535,541.08913 455.51828,537.10495 448.37776,532.23339 C 448.00272,526.82681 445.0893,524.23001 442.99551,521.67339 C 440.65308,518.81315 439.01303,516.26197 436.606,515.0789 L 408.33269,468.91162 L 457.66715,468.85904 z" id="rect2470" style="fill: rgb(250, 1, 45); fill-opacity: 1; stroke: rgb(0, 34, 85); stroke-width: 0pt; stroke-linecap: butt; stroke-linejoin: miter; stroke-miterlimit: 4; stroke-opacity: 1;"/>
    <path d="M 285.98805,468.85904 C 279.43567,468.85904 274.16064,474.13406 274.16064,480.68643 L 274.16064,558.59303 C 274.16064,565.14542 279.43567,570.42044 285.98805,570.42044 L 355.66688,570.42044 C 354.89293,567.76039 352.73608,562.02865 350.81909,562.01777 C 349.28539,561.88698 343.4562,562.61286 342.44404,561.50154 C 346.85526,529.0507 352.52824,531.44466 358.25856,527.22491 C 359.30264,526.45607 357.54439,525.50071 358.23873,524.52423 C 359.10075,523.31193 357.2955,522.11544 357.94924,520.93939 C 358.94868,519.14142 351.03788,521.20393 351.66345,519.42051 C 352.88857,515.92782 354.32115,513.65208 355.19258,510.6504 C 355.91503,508.16195 355.11589,509.30717 355.12018,508.18531 C 355.12659,506.50657 342.44678,509.09811 342.83446,507.50132 C 343.54709,504.56625 353.90334,501.64187 353.76325,498.74066 C 353.13094,485.64535 364.041,478.81644 371.80601,479.06354 C 385.43134,478.82768 389.24433,480.31465 394.16403,489.26485 C 397.40644,495.736 401.27325,506.47924 394.35218,509.47537 C 394.77914,512.62542 395.50438,515.32803 397.29235,516.43655 C 399.71198,516.34843 400.6462,516.56087 402.68598,516.55533 C 417.10099,516.51616 423.8116,517.65998 427.2425,520.00867 L 428.15291,514.04299 L 393.68817,468.91162 L 285.98805,468.85904 z" id="path2473" style="fill: rgb(9, 38, 104); fill-opacity: 1; stroke: rgb(0, 34, 85); stroke-width: 0pt; stroke-linecap: butt; stroke-linejoin: miter; stroke-miterlimit: 4; stroke-opacity: 1;"/>
    <path d="M 274.13853,587.23206 L 274.13853,573.7035 L 277.49784,573.7035 L 279.10034,580.91081 C 279.18738,581.30057 279.2685,581.76948 279.34368,582.31756 C 279.41885,582.86565 279.49205,583.51117 279.56328,584.25413 C 279.61075,583.54162 279.67209,582.91132 279.74727,582.36323 C 279.82245,581.81516 279.91543,581.3371 280.02623,580.92908 L 281.7949,573.7035 L 285.02364,573.7035 L 285.02364,587.23206 L 282.85137,587.23206 C 282.83553,586.82403 282.82564,586.38709 282.82169,585.92122 C 282.81772,585.45535 282.81575,584.77481 282.81576,583.8796 C 282.81575,582.11965 282.84741,580.49519 282.91072,579.00622 C 282.97402,577.51726 283.07294,576.14858 283.20748,574.90016 L 280.16867,587.23206 L 278.8748,587.23206 L 276.08527,574.90016 C 276.1644,576.64795 276.22375,578.54188 276.26332,580.58196 C 276.30288,582.62206 276.32267,584.83875 276.32268,587.23206 L 274.13853,587.23206 z M 290.18725,582.70122 L 292.30017,582.70122 L 291.33867,574.84535 L 291.2081,574.84535 L 290.18725,582.70122 z M 286.98225,587.23206 L 289.55812,573.7035 L 292.94117,573.7035 L 295.63574,587.23206 L 292.98865,587.23206 L 292.54945,584.50077 L 289.94984,584.50077 L 289.53438,587.23206 L 286.98225,587.23206 z M 296.11055,587.3234 L 296.11055,585.45992 C 296.26883,585.50255 296.42512,585.53452 296.57943,585.55583 C 296.73375,585.57714 296.88213,585.5878 297.02457,585.5878 C 297.5627,585.5878 297.94057,585.43861 298.15819,585.1402 C 298.37581,584.8418 298.48463,584.28458 298.48463,583.46854 L 298.48463,573.7035 L 301.0605,573.7035 L 301.0605,583.73345 C 301.06049,585.07321 300.78747,586.02932 300.24144,586.60175 C 299.6954,587.1742 298.79326,587.46042 297.535,587.46042 C 297.3055,587.46042 297.07206,587.44824 296.83465,587.42388 C 296.59725,587.39953 296.35588,587.36603 296.11055,587.3234 L 296.11055,587.3234 z M 306.55647,577.2021 L 306.55647,583.73345 C 306.55647,584.44596 306.68308,584.9636 306.93632,585.28635 C 307.18955,585.60911 307.58919,585.77049 308.13523,585.77049 C 308.68126,585.77049 309.08089,585.60911 309.33414,585.28635 C 309.58736,584.9636 309.71398,584.44596 309.71399,583.73345 L 309.71399,577.2021 C 309.71398,576.48961 309.58736,575.97197 309.33414,575.64921 C 309.08089,575.32645 308.68126,575.16507 308.13523,575.16506 C 307.58919,575.16507 307.18955,575.32645 306.93632,575.64921 C 306.68308,575.97197 306.55647,576.48961 306.55647,577.2021 L 306.55647,577.2021 z M 303.90938,578.27087 C 303.90938,576.55964 304.23977,575.32798 304.90056,574.57587 C 305.56133,573.82379 306.63956,573.44774 308.13523,573.44773 C 309.62297,573.44774 310.69922,573.82531 311.36396,574.58044 C 312.0287,575.33559 312.36107,576.56573 312.36108,578.27087 L 312.36108,582.66469 C 312.36107,584.37592 312.0287,585.60911 311.36396,586.36425 C 310.69922,587.11939 309.62297,587.49696 308.13523,587.49696 C 306.63956,587.49696 305.56133,587.11939 304.90056,586.36425 C 304.23977,585.60911 303.90938,584.37592 303.90938,582.66469 L 303.90938,578.27087 z M 317.76209,579.80551 L 318.39122,579.80551 C 319.27753,579.80552 319.88885,579.64414 320.22518,579.32137 C 320.56151,578.99861 320.72966,578.40486 320.72967,577.54009 C 320.72966,576.75452 320.5714,576.20644 320.25486,575.89584 C 319.93831,575.58527 319.39227,575.42998 318.61675,575.42996 L 317.76209,575.42996 L 317.76209,579.80551 z M 315.16248,587.23206 L 315.16248,573.7035 L 318.03511,573.7035 C 320.0768,573.70352 321.47749,573.98821 322.23721,574.5576 C 322.9969,575.12701 323.37675,576.15771 323.37676,577.64971 C 323.37675,578.56319 323.21255,579.29854 322.88414,579.85575 C 322.55572,580.41298 322.03936,580.83165 321.33507,581.11178 L 323.64978,587.23206 L 320.96708,587.23206 L 318.90164,581.54111 L 317.76209,581.54111 L 317.76209,587.23206 L 315.16248,587.23206 z M 330.54646,587.23206 L 330.54646,573.7035 L 333.14606,573.7035 L 333.14606,585.35943 L 337.90608,585.35943 L 337.90608,587.23206 L 330.54646,587.23206 z M 339.33052,587.23206 L 339.33052,573.7035 L 346.28655,573.7035 L 346.28655,575.52132 L 341.93013,575.52132 L 341.93013,579.26656 L 345.33692,579.26656 L 345.33692,581.11178 L 341.93013,581.11178 L 341.93013,585.41424 L 346.69014,585.41424 L 346.69014,587.23206 L 339.33052,587.23206 z M 350.53614,582.70122 L 352.64906,582.70122 L 351.68757,574.84535 L 351.55699,574.84535 L 350.53614,582.70122 z M 347.33114,587.23206 L 349.90701,573.7035 L 353.29006,573.7035 L 355.98463,587.23206 L 353.33755,587.23206 L 352.89834,584.50077 L 350.29873,584.50077 L 349.88327,587.23206 L 347.33114,587.23206 z M 365.96761,587.23206 L 364.73309,587.23206 L 364.10396,586.23637 C 363.74784,586.61393 363.32644,586.89863 362.83977,587.09046 C 362.35308,587.2823 361.81693,587.37821 361.23133,587.37821 C 359.94141,587.37821 358.9997,587.00216 358.40619,586.25007 C 357.81267,585.49798 357.51591,584.30285 357.51591,582.66469 L 357.51591,578.27087 C 357.51591,576.55964 357.8463,575.32798 358.50709,574.57587 C 359.16786,573.82379 360.24609,573.44774 361.74176,573.44773 C 363.12663,573.44774 364.17715,573.80095 364.89334,574.50736 C 365.60951,575.21379 365.9676,576.24297 365.96761,577.5949 L 365.96761,578.08817 L 363.32052,578.08817 L 363.32052,577.2021 C 363.32051,576.48961 363.19389,575.97197 362.94067,575.64921 C 362.68742,575.32645 362.28779,575.16507 361.74176,575.16506 C 361.19572,575.16507 360.79608,575.32645 360.54285,575.64921 C 360.28961,575.97197 360.163,576.48961 360.163,577.2021 L 360.163,583.66037 C 360.163,584.37289 360.28961,584.89052 360.54285,585.21328 C 360.79608,585.53603 361.19572,585.69742 361.74176,585.69742 C 362.28779,585.69742 362.68742,585.53603 362.94067,585.21328 C 363.19389,584.89052 363.32051,584.37289 363.32052,583.66037 L 363.32052,582.08919 L 361.93168,582.08919 L 361.93168,580.39926 L 365.96761,580.39926 L 365.96761,587.23206 z M 368.67404,583.00267 L 368.67404,573.7035 L 371.27365,573.7035 L 371.27365,583.55076 C 371.27365,584.29371 371.38839,584.82505 371.61789,585.14476 C 371.84738,585.46448 372.21931,585.62434 372.7337,585.62434 C 373.24808,585.62434 373.62002,585.46448 373.84952,585.14476 C 374.07901,584.82505 374.19375,584.29371 374.19376,583.55076 L 374.19376,573.7035 L 376.76962,573.7035 L 376.76962,583.00267 C 376.76961,584.62865 376.45901,585.78115 375.8378,586.46017 C 375.21658,587.13918 374.18188,587.47869 372.7337,587.47869 C 371.2776,587.47869 370.23697,587.13918 369.61179,586.46017 C 368.98663,585.78115 368.67404,584.62865 368.67404,583.00267 L 368.67404,583.00267 z M 379.73722,587.23206 L 379.73722,573.7035 L 386.69325,573.7035 L 386.69325,575.52132 L 382.33683,575.52132 L 382.33683,579.26656 L 385.74362,579.26656 L 385.74362,581.11178 L 382.33683,581.11178 L 382.33683,585.41424 L 387.09684,585.41424 L 387.09684,587.23206 L 379.73722,587.23206 z M 396.2014,579.35791 L 396.98484,579.35791 C 397.79993,579.35792 398.37169,579.21024 398.7001,578.91487 C 399.02852,578.61952 399.19273,578.09428 399.19273,577.33913 C 399.19273,576.61445 399.03247,576.11204 398.71198,575.83189 C 398.39147,575.55178 397.83158,575.41171 397.03232,575.4117 L 396.2014,575.4117 L 396.2014,579.35791 z M 396.2014,585.49645 L 397.12729,585.49645 C 397.98195,585.49645 398.57942,585.32746 398.91971,584.98947 C 399.25998,584.65149 399.43012,584.04708 399.43013,583.17623 C 399.43012,582.415 399.26196,581.88367 398.92565,581.58222 C 398.58931,581.28078 397.98986,581.13005 397.12729,581.13005 L 396.2014,581.13005 L 396.2014,585.49645 z M 393.6018,587.23206 L 393.6018,573.7035 L 396.85427,573.7035 C 398.73769,573.70352 400.03948,573.96233 400.75961,574.47995 C 401.47974,574.9976 401.83981,575.91108 401.83982,577.22038 C 401.83981,578.05469 401.7033,578.70174 401.43029,579.16151 C 401.15726,579.6213 400.71213,579.95471 400.09487,580.16177 C 400.78334,580.36882 401.28784,580.7266 401.60835,581.2351 C 401.92884,581.7436 402.08908,582.43936 402.08909,583.32238 C 402.08908,584.70478 401.68945,585.70199 400.89019,586.31402 C 400.09091,586.92604 398.78912,587.23206 396.98484,587.23206 L 393.6018,587.23206 z M 406.56421,582.70122 L 408.67714,582.70122 L 407.71565,574.84535 L 407.58506,574.84535 L 406.56421,582.70122 z M 403.35922,587.23206 L 405.93509,573.7035 L 409.31814,573.7035 L 412.01271,587.23206 L 409.36562,587.23206 L 408.92641,584.50077 L 406.32681,584.50077 L 405.91135,587.23206 L 403.35922,587.23206 z M 412.78429,583.71518 L 415.26519,583.432 L 415.26519,583.55076 C 415.26519,584.28153 415.38785,584.83114 415.63317,585.19957 C 415.8785,585.56801 416.25043,585.75223 416.74899,585.75223 C 417.18423,585.75223 417.52055,585.62282 417.75797,585.364 C 417.99537,585.10518 418.11407,584.73523 418.11408,584.25413 C 418.11407,583.92528 418.03296,583.601 417.87074,583.28128 C 417.7085,582.96156 417.45724,582.61901 417.11697,582.25362 C 416.79251,581.91868 416.23856,581.39039 415.45512,580.66874 C 414.67167,579.9471 414.14542,579.3975 413.87636,579.01992 C 413.57564,578.59364 413.35011,578.1841 413.19975,577.7913 C 413.04939,577.39852 412.97421,577.02246 412.97422,576.66316 C 412.97421,575.67052 413.30659,574.88342 413.97133,574.30182 C 414.63607,573.72026 415.53029,573.42947 416.65403,573.42946 C 417.80148,573.42947 418.70759,573.72483 419.37234,574.31553 C 420.03707,574.90626 420.39317,575.73751 420.44067,576.80932 L 418.09034,577.03768 C 418.05077,576.39217 417.91623,575.92174 417.68675,575.62637 C 417.45724,575.33102 417.11301,575.18335 416.65403,575.18333 C 416.31373,575.18335 416.0328,575.30057 415.81123,575.53501 C 415.58965,575.76949 415.47885,576.06942 415.47885,576.43479 C 415.47885,576.75756 415.58767,577.11382 415.80529,577.50356 C 416.02291,577.89331 416.32956,578.28001 416.72525,578.66367 C 416.8756,578.80983 417.10114,579.02298 417.40186,579.3031 C 418.47018,580.31401 419.19032,581.04175 419.56226,581.4863 C 419.91836,581.9065 420.18347,582.34497 420.35758,582.80171 C 420.53167,583.25844 420.61872,583.74258 420.61873,584.25413 C 420.61872,585.21023 420.25865,585.98973 419.53852,586.59262 C 418.81838,587.19552 417.88854,587.49696 416.74899,587.49696 C 415.56986,587.49696 414.63804,587.17115 413.95352,586.51954 C 413.26899,585.86794 412.87925,584.93315 412.78429,583.71518 L 412.78429,583.71518 z M 422.51798,587.23206 L 422.51798,573.7035 L 429.474,573.7035 L 429.474,575.52132 L 425.11758,575.52132 L 425.11758,579.26656 L 428.52437,579.26656 L 428.52437,581.11178 L 425.11758,581.11178 L 425.11758,585.41424 L 429.8776,585.41424 L 429.8776,587.23206 L 422.51798,587.23206 z M 434.13906,579.35791 L 434.92251,579.35791 C 435.7376,579.35792 436.30935,579.21024 436.63777,578.91487 C 436.96617,578.61952 437.13038,578.09428 437.13039,577.33913 C 437.13038,576.61445 436.97013,576.11204 436.64964,575.83189 C 436.32914,575.55178 435.76925,575.41171 434.96999,575.4117 L 434.13906,575.4117 L 434.13906,579.35791 z M 434.13906,585.49645 L 435.06495,585.49645 C 435.91961,585.49645 436.51709,585.32746 436.85737,584.98947 C 437.19765,584.65149 437.3678,584.04708 437.3678,583.17623 C 437.3678,582.415 437.19963,581.88367 436.86331,581.58222 C 436.52698,581.28078 435.92752,581.13005 435.06495,581.13005 L 434.13906,581.13005 L 434.13906,585.49645 z M 431.53945,587.23206 L 431.53945,573.7035 L 434.79193,573.7035 C 436.67535,573.70352 437.97713,573.96233 438.69728,574.47995 C 439.4174,574.9976 439.77747,575.91108 439.77748,577.22038 C 439.77747,578.05469 439.64097,578.70174 439.36796,579.16151 C 439.09493,579.6213 438.64979,579.95471 438.03254,580.16177 C 438.72101,580.36882 439.2255,580.7266 439.54601,581.2351 C 439.8665,581.7436 440.02675,582.43936 440.02676,583.32238 C 440.02675,584.70478 439.62711,585.70199 438.82785,586.31402 C 438.02858,586.92604 436.72679,587.23206 434.92251,587.23206 L 431.53945,587.23206 z M 444.50187,582.70122 L 446.61479,582.70122 L 445.6533,574.84535 L 445.52272,574.84535 L 444.50187,582.70122 z M 441.29687,587.23206 L 443.87274,573.7035 L 447.25579,573.7035 L 449.95036,587.23206 L 447.30327,587.23206 L 446.86407,584.50077 L 444.26446,584.50077 L 443.849,587.23206 L 441.29687,587.23206 z M 451.67158,587.23206 L 451.67158,573.7035 L 454.27119,573.7035 L 454.27119,585.35943 L 459.0312,585.35943 L 459.0312,587.23206 L 451.67158,587.23206 z M 460.45563,587.23206 L 460.45563,573.7035 L 463.05525,573.7035 L 463.05525,585.35943 L 467.81526,585.35943 L 467.81526,587.23206 L 460.45563,587.23206 z" id="text2477" style="font-size: 196.727px; font-style: normal; font-weight: normal; fill: rgb(250, 1, 45); fill-opacity: 1; stroke: none; stroke-width: 1px; stroke-linecap: butt; stroke-linejoin: miter; stroke-opacity: 1; font-family: Bitstream Vera Sans;"/>
    <path d="M 136.49653,592.61224 A 29.098097,28.039984 0 1 1 78.300333,592.61224 A 29.098097,28.039984 0 1 1 136.49653,592.61224 z" transform="matrix(0.268616, 0, 0, 0.278753, 268.965, 380.947)" id="path2529" style="opacity: 1; fill: rgb(255, 255, 255); fill-opacity: 1; stroke: rgb(0, 34, 85); stroke-width: 0pt; stroke-linecap: butt; stroke-linejoin: miter; stroke-miterlimit: 4; stroke-dasharray: none; stroke-opacity: 1;"/>
  </g>
</svg>